# File created by Blade
# Date/Time:  Wed Apr 08 14:47:28 2015
#---------------------------------------------------------
:version 1.10
:name HOM
:units
  mass 1.0
  length 1.000000
  angle deg
:documentation
     Acclaim Skeleton File
:root
   axis xyz
   order TX TY TZ RX RY RZ
   position 0.000000 0.000000 0.000000
   orientation 0 0 0
:bonedata
   begin
      id 1
      name Spine_dum
      direction 0.000000 1.000000 0.000000
      length 4.885285
      axis 0.0 0.0 0.0 xyz
   end
   begin
      id 2
      name LeftUpLeg_dum
      direction 1.000000 0.000000 0.000000
      length 2.672193
      axis 0.0 0.0 0.0 xyz
   end
   begin
      id 3
      name RightUpLeg_dum
      direction -1.000000 0.000000 0.000000
      length 2.672193
      axis 0.0 0.0 0.0 xyz
   end
   begin
      id 4
      name Spine
      direction 0.000000 1.000000 0.000000
      length 0.000000
      axis 0.0 0.0 0.0 xyz
      dof rx ry rz
   end
   begin
      id 5
      name Spine_dum1
      direction 0.000000 1.000000 0.000000
      length 16.494159
      axis 0.0 0.0 0.0 xyz
   end
   begin
      id 6
      name Spine_dum2
      direction 0.000000 1.000000 0.000000
      length 10.663448
      axis 0.0 0.0 0.0 xyz
   end
   begin
      id 7
      name Spine_dum3
      direction 0.000000 1.000000 0.000000
      length 10.663448
      axis 0.0 0.0 0.0 xyz
   end
   begin
      id 8
      name Head
      direction 0.000000 1.000000 0.000000
      length 4.527550
      axis 0.0 0.0 0.0 xyz
      dof rx ry rz
   end
   begin
      id 9
      name LeftShoulder
      direction 1.000000 0.000000 0.000000
      length 7.531907
      axis 0.0 0.0 -90.0 xyz
      dof rx ry rz
   end
   begin
      id 10
      name LeftArm
      direction 1.000000 0.000000 0.000000
      length 10.229199
      axis 0.0 0.0 -90.0 xyz
      dof rx ry rz
   end
   begin
      id 11
      name LeftForeArm
      direction 1.000000 0.000000 0.000000
      length 8.673495
      axis 0.0 0.0 -90.0 xyz
      dof ry rz rx
   end
   begin
      id 12
      name LeftHand
      direction 0.000000 0.000000 0.000000
      length 0.000000
      axis 0.0 0.0 -90.0 xyz
      dof rx ry rz
   end
   begin
      id 13
      name LeftHand_dum1
      direction 0.000000 0.000000 0.000000
      length 0.000000
      axis 0.0 0.0 -90.0 xyz
   end
   begin
      id 14
      name LeftHand_dum2
      direction 1.000000 0.000000 0.000000
      length 3.937000
      axis 0.0 0.0 -90.0 xyz
   end
   begin
      id 15
      name LeftHandThumb1
      direction 0.000000 0.000000 1.000000
      length 3.937000
      axis 0.0 0.0 -90.0 xyz
      dof rx rz ry
   end
   begin
      id 16
      name RightShoulder
      direction -1.000000 0.000000 0.000000
      length 7.531907
      axis 0.0 0.0 90.0 xyz
      dof rx ry rz
   end
   begin
      id 17
      name RightArm
      direction -1.000000 0.000000 0.000000
      length 10.229199
      axis 0.0 0.0 90.0 xyz
      dof rx ry rz
   end
   begin
      id 18
      name RightForeArm
      direction -1.000000 0.000000 0.000000
      length 8.673495
      axis 0.0 0.0 90.0 xyz
      dof ry rz rx
   end
   begin
      id 19
      name RightHand
      direction 0.000000 0.000000 0.000000
      length 0.000000
      axis 0.0 0.0 90.0 xyz
      dof rx ry rz
   end
   begin
      id 20
      name RightHand_dum1
      direction 0.000000 0.000000 0.000000
      length 0.000000
      axis 0.0 0.0 90.0 xyz
   end
   begin
      id 21
      name RightHand_dum2
      direction -1.000000 0.000000 0.000000
      length 3.937000
      axis 0.0 0.0 90.0 xyz
   end
   begin
      id 22
      name RightHandThumb1
      direction 0.000000 0.000000 1.000000
      length 3.937000
      axis 0.0 0.0 90.0 xyz
      dof rx rz ry
   end
   begin
      id 23
      name LeftUpLeg
      direction 0.000000 -1.000000 0.000000
      length 16.263388
      axis 0.0 0.0 0.0 xyz
      dof rx ry rz
   end
   begin
      id 24
      name LeftLeg
      direction 0.000000 -1.000000 0.000000
      length 14.328163
      axis 0.0 0.0 0.0 xyz
      dof rx ry rz
   end
   begin
      id 25
      name LeftFoot
      direction 0.000000 -0.258819 0.965926
      length 5.031290
      axis 15.0 0.0 0.0 xyz
      dof rx ry rz
   end
   begin
      id 26
      name LeftToeBase
      direction 0.000000 0.000000 1.000000
      length 2.952750
      axis 0.0 0.0 0.0 xyz
      dof rx ry rz
   end
   begin
      id 27
      name RightUpLeg
      direction 0.000000 -1.000000 0.000000
      length 16.263388
      axis 0.0 0.0 0.0 xyz
      dof rx ry rz
   end
   begin
      id 28
      name RightLeg
      direction 0.000000 -1.000000 0.000000
      length 14.328163
      axis 0.0 0.0 0.0 xyz
      dof rx ry rz
   end
   begin
      id 29
      name RightFoot
      direction 0.000000 -0.258819 0.965926
      length 5.031290
      axis 15.0 0.0 0.0 xyz
      dof rx ry rz
   end
   begin
      id 30
      name RightToeBase
      direction 0.000000 0.000000 1.000000
      length 2.952750
      axis 0.0 0.0 0.0 xyz
      dof rx ry rz
   end
:hierarchy
   begin
      root Spine_dum LeftUpLeg_dum RightUpLeg_dum
      Spine_dum Spine
      LeftUpLeg_dum LeftUpLeg
      RightUpLeg_dum RightUpLeg
      Spine Spine_dum1 Spine_dum2 Spine_dum3
      Spine_dum1 Head
      Spine_dum2 LeftShoulder
      Spine_dum3 RightShoulder
      LeftShoulder LeftArm
      LeftArm LeftForeArm
      LeftForeArm LeftHand
      LeftHand LeftHand_dum1 LeftHand_dum2
      LeftHand_dum1 LeftHandThumb1
      RightShoulder RightArm
      RightArm RightForeArm
      RightForeArm RightHand
      RightHand RightHand_dum1 RightHand_dum2
      RightHand_dum1 RightHandThumb1
      LeftUpLeg LeftLeg
      LeftLeg LeftFoot
      LeftFoot LeftToeBase
      RightUpLeg RightLeg
      RightLeg RightFoot
      RightFoot RightToeBase
   end

# File created by Blade
# Date/Time:  Wed Apr 08 14:47:20 2015
# Frame Rate: 120.000 fps
#------------------------------------------------------
:FULLY-SPECIFIED
:DEGREES
422
root -1.450119 33.199470 -1.959954 14.226862 4.712254 0.667040
Spine -8.826276 -4.668697 0.749278
Head 2.249822 -5.708217 1.954260
LeftShoulder -22.828814 49.226464 2.298531
LeftArm 52.489403 14.768626 -70.408494
LeftForeArm 7.654543 -0.000000 121.117221
LeftHand 9.490314 -0.000000 5.128990
LeftHandThumb1 -26.253704 0.000000 33.147579
RightShoulder -6.110856 -12.223642 -19.066408
RightArm 15.226505 -34.648130 75.148032
RightForeArm 1.964911 -0.000000 109.376784
RightHand 12.801116 -0.000000 -12.325819
RightHandThumb1 -24.326973 -0.000000 -32.862282
LeftUpLeg -22.922241 -5.860274 1.410695
LeftLeg 32.207657 -0.000000 -0.000000
LeftFoot -17.601472 13.619069 -20.194796
LeftToeBase -12.445758 -0.000000 0.000000
RightUpLeg -20.063917 -1.250275 -0.696735
RightLeg 15.277472 -0.000000 -0.000000
RightFoot -8.553546 -13.090738 12.255721
RightToeBase -4.210306 -0.000000 0.000000
423
root -1.439413 33.177997 -2.066770 14.213665 4.377581 0.569148
Spine -8.915653 -4.815526 0.868035
Head 2.573814 -5.376997 1.808411
LeftShoulder -22.928501 49.192297 2.203272
LeftArm 52.343335 14.581134 -70.362470
LeftForeArm 7.656807 -0.000000 121.073877
LeftHand 9.433078 -0.000000 5.137438
LeftHandThumb1 -26.253704 0.000000 33.147579
RightShoulder -6.140929 -12.284052 -19.023489
RightArm 15.162867 -34.547322 75.176970
RightForeArm 1.942084 -0.000000 109.369476
RightHand 12.812282 -0.000000 -12.344898
RightHandThumb1 -24.326973 -0.000000 -32.862282
LeftUpLeg -22.427026 -5.614961 1.353909
LeftLeg 32.622374 -0.000000 -0.000000
LeftFoot -17.904633 13.681066 -20.223402
LeftToeBase -12.821763 -0.000000 0.000000
RightUpLeg -20.325363 -1.241362 -0.659113
RightLeg 15.381915 -0.000000 -0.000000
RightFoot -8.551641 -12.703803 12.288424
RightToeBase -4.085793 -0.000000 0.000000
424
root -1.429866 33.154601 -2.177047 14.203865 4.106514 0.423576
Spine -9.008284 -5.022317 1.046086
Head 2.901128 -5.021229 1.687356
LeftShoulder -23.078177 49.241498 2.049794
LeftArm 52.331432 14.357748 -70.283324
LeftForeArm 7.756726 -0.000000 120.998180
LeftHand 9.420746 -0.000000 5.250519
LeftHandThumb1 -26.253704 0.000000 33.147579
RightShoulder -6.151378 -12.354945 -18.973385
RightArm 15.117295 -34.420096 75.190209
RightForeArm 1.889085 -0.000000 109.343380
RightHand 12.786878 0.000000 -12.424805
RightHandThumb1 -24.326973 -0.000000 -32.862282
LeftUpLeg -21.959883 -5.381749 1.364865
LeftLeg 33.010924 -0.000000 -0.000000
LeftFoot -18.143795 13.651079 -20.267559
LeftToeBase -13.002268 -0.000000 0.000000
RightUpLeg -20.590187 -1.263994 -0.560489
RightLeg 15.476261 -0.000000 -0.000000
RightFoot -8.502765 -12.335364 12.232213
RightToeBase -3.973158 -0.000000 0.000000
425
root -1.423937 33.130870 -2.290332 14.210323 3.864223 0.188359
Spine -9.109493 -5.180412 1.308227
Head 3.158010 -4.733765 1.619597
LeftShoulder -23.176349 49.265736 1.948926
LeftArm 52.334008 14.167411 -70.244692
LeftForeArm 7.730351 -0.000000 120.911309
LeftHand 9.358913 0.000000 5.204650
LeftHandThumb1 -26.253704 0.000000 33.147579
RightShoulder -6.219113 -12.398344 -18.894220
RightArm 14.981342 -34.267718 75.282332
RightForeArm 1.809140 -0.000000 109.338619
RightHand 12.741260 -0.000000 -12.379697
RightHandThumb1 -24.326973 -0.000000 -32.862282
LeftUpLeg -21.489030 -5.142448 1.496848
LeftLeg 33.284837 -0.000000 -0.000000
LeftFoot -18.390772 13.453501 -20.452974
LeftToeBase -13.252886 -0.000000 0.000000
RightUpLeg -20.795419 -1.057299 -0.423691
RightLeg 15.391544 -0.000000 -0.000000
RightFoot -8.473180 -12.134598 12.417769
RightToeBase -3.718166 -0.000000 0.000000
426
root -1.416366 33.107098 -2.406932 14.243704 3.627643 -0.047938
Spine -9.222272 -5.256317 1.545467
Head 3.382225 -4.549307 1.579829
LeftShoulder -23.039354 49.166082 2.091902
LeftArm 52.190844 14.062862 -70.287967
LeftForeArm 7.926499 -0.000000 120.816736
LeftHand 9.326821 -0.000000 5.273940
LeftHandThumb1 -26.253704 0.000000 33.147579
RightShoulder -6.392635 -12.457642 -18.774238
RightArm 14.840438 -34.165287 75.406525
RightForeArm 1.457389 -0.000000 109.292722
RightHand 12.585809 -0.000000 -14.075651
RightHandThumb1 -24.326973 -0.000000 -32.862282
LeftUpLeg -21.024990 -4.928754 1.637560
LeftLeg 33.450296 -0.000000 -0.000000
LeftFoot -18.641288 13.295902 -20.509836
LeftToeBase -13.305456 -0.000000 0.000000
RightUpLeg -21.066504 -0.852500 -0.295879
RightLeg 15.398554 -0.000000 -0.000000
RightFoot -8.342091 -11.926839 12.359260
RightToeBase -3.766234 -0.000000 0.000000
427
root -1.405594 33.083063 -2.524854 14.270929 3.401203 -0.244208
Spine -9.326455 -5.419159 1.749915
Head 3.622502 -4.294126 1.543322
LeftShoulder -23.047479 49.128568 2.101273
LeftArm 52.144446 13.905072 -70.314898
LeftForeArm 7.911469 0.000000 120.683214
LeftHand 9.368955 -0.000000 5.335884
LeftHandThumb1 -26.253704 0.000000 33.147579
RightShoulder -6.474266 -12.568752 -18.655420
RightArm 14.750086 -33.988294 75.505136
RightForeArm 1.538829 -0.000000 109.262860
RightHand 12.658548 -0.000000 -13.275198
RightHandThumb1 -24.326973 -0.000000 -32.862282
LeftUpLeg -20.514008 -4.768148 1.755995
LeftLeg 33.442151 -0.000000 -0.000000
LeftFoot -18.795257 13.051291 -20.674825
LeftToeBase -13.512705 -0.000000 0.000000
RightUpLeg -21.370283 -0.726745 -0.191701
RightLeg 15.477412 -0.000000 -0.000000
RightFoot -8.231569 -11.653987 12.297314
RightToeBase -3.794787 -0.000000 0.000000
428
root -1.392864 33.059154 -2.647118 14.313712 3.193436 -0.440813
Spine -9.429725 -5.639198 1.945418
Head 3.809769 -4.000952 1.567826
LeftShoulder -23.176039 49.161123 2.024001
LeftArm 52.230871 13.753679 -70.300194
LeftForeArm 8.031580 0.000000 120.544280
LeftHand 9.274668 -0.000000 5.572249
LeftHandThumb1 -26.253704 0.000000 33.147579
RightShoulder -6.517786 -12.588301 -18.519090
RightArm 14.575268 -33.794104 75.628315
RightForeArm 1.605050 -0.000000 109.225208
RightHand 12.689623 -0.000000 -12.831528
RightHandThumb1 -24.326973 -0.000000 -32.862282
LeftUpLeg -19.997155 -4.644697 1.882993
LeftLeg 33.285119 -0.000000 -0.000000
LeftFoot -18.721301 12.695098 -20.925356
LeftToeBase -13.947689 -0.000000 0.000000
RightUpLeg -21.687650 -0.528195 -0.115057
RightLeg 15.545260 -0.000000 -0.000000
RightFoot -8.115761 -11.439232 12.245893
RightToeBase -3.817537 -0.000000 0.000000
429
root -1.377538 33.037790 -2.774522 14.398530 2.989452 -0.622069
Spine -9.586578 -5.839737 2.129806
Head 4.040712 -3.735160 1.588136
LeftShoulder -23.172924 49.151309 2.045371
LeftArm 52.246570 13.590719 -70.330537
LeftForeArm 7.996650 -0.000000 120.393265
LeftHand 9.265373 -0.000000 5.749660
LeftHandThumb1 -26.253704 0.000000 33.147579
RightShoulder -6.558779 -12.674933 -18.369298
RightArm 14.471928 -33.597423 75.697836
RightForeArm 1.533586 0.000000 109.179416
RightHand 12.662116 -0.000000 -12.857838
RightHandThumb1 -24.326973 -0.000000 -32.862282
LeftUpLeg -19.444678 -4.695296 2.049298
LeftLeg 32.853563 -0.000000 -0.000000
LeftFoot -18.397922 12.108889 -21.391164
LeftToeBase -14.567680 -0.000000 0.000000
RightUpLeg -22.057555 -0.321311 -0.062549
RightLeg 15.611365 -0.000000 -0.000000
RightFoot -7.964604 -11.214134 12.250568
RightToeBase -3.871812 -0.000000 0.000000
430
root -1.360791 33.015850 -2.905794 14.503441 2.794788 -0.796396
Spine -9.742064 -6.009188 2.281156
Head 4.215766 -3.536971 1.669632
LeftShoulder -23.105546 49.160980 2.148576
LeftArm 52.290769 13.452502 -70.342811
LeftForeArm 7.744287 0.000000 120.276956
LeftHand 9.486454 -0.000000 4.690845
LeftHandThumb1 -26.253704 0.000000 33.147579
RightShoulder -6.626513 -12.756011 -18.201116
RightArm 14.351969 -33.457014 75.784079
RightForeArm 1.508719 0.000000 109.137271
RightHand 12.694677 -0.000000 -13.246778
RightHandThumb1 -24.326973 -0.000000 -32.862282
LeftUpLeg -18.947310 -4.705344 2.198003
LeftLeg 32.355748 -0.000000 -0.000000
LeftFoot -17.867403 11.392017 -22.036362
LeftToeBase -14.676376 -0.000000 0.000000
RightUpLeg -22.441555 -0.056474 -0.025468
RightLeg 15.659272 -0.000000 -0.000000
RightFoot -7.827010 -11.109319 12.240599
RightToeBase -3.948749 -0.000000 0.000000
431
root -1.342467 32.995041 -3.038033 14.593926 2.614825 -0.969245
Spine -9.873314 -6.278877 2.444063
Head 4.368150 -3.243681 1.754519
LeftShoulder -23.114117 49.093689 2.195965
LeftArm 52.253686 13.316331 -70.413513
LeftForeArm 7.917214 -0.000000 120.154322
LeftHand 9.521999 -0.000000 4.434318
LeftHandThumb1 -26.253704 0.000000 33.147579
RightShoulder -6.606447 -12.834229 -18.046707
RightArm 14.230024 -33.230580 75.907301
RightForeArm 1.486868 -0.000000 109.101067
RightHand 12.682590 -0.000000 -13.152709
RightHandThumb1 -24.326973 -0.000000 -32.862282
LeftUpLeg -18.400040 -4.774241 2.353289
LeftLeg 31.686541 -0.000000 -0.000000
LeftFoot -16.936553 10.665526 -22.432690
LeftToeBase -14.239003 -0.000000 0.000000
RightUpLeg -22.797917 0.178642 0.015278
RightLeg 15.677843 -0.000000 -0.000000
RightFoot -7.682973 -11.013704 12.232000
RightToeBase -3.927855 -0.000000 0.000000
432
root -1.320514 32.973165 -3.176456 14.728354 2.460062 -1.162008
Spine -10.034439 -6.472001 2.608867
Head 4.493447 -3.070648 1.897821
LeftShoulder -23.052372 49.073078 2.335844
LeftArm 52.338706 13.239990 -70.476284
LeftForeArm 8.144155 -0.000000 119.978307
LeftHand 9.555304 -0.000000 4.454149
LeftHandThumb1 -26.253704 0.000000 33.147579
RightShoulder -6.723778 -12.921358 -17.884007
RightArm 14.057435 -33.045383 76.066707
RightForeArm 1.429936 -0.000000 109.081478
RightHand 12.550078 -0.000000 -12.491321
RightHandThumb1 -24.326973 -0.000000 -32.862282
LeftUpLeg -17.913042 -4.804228 2.513755
LeftLeg 30.900310 -0.000000 -0.000000
LeftFoot -15.807313 10.088745 -22.396035
LeftToeBase -14.466118 -0.000000 0.000000
RightUpLeg -23.197512 0.363112 0.086739
RightLeg 15.667197 -0.000000 -0.000000
RightFoot -7.585578 -10.904429 12.369164
RightToeBase -3.763157 -0.000000 0.000000
433
root -1.298039 32.951693 -3.318221 14.840307 2.317364 -1.410658
Spine -10.143492 -6.655930 2.846925
Head 4.537579 -2.907506 2.002743
LeftShoulder -23.006194 49.054153 2.417050
LeftArm 52.489208 13.179000 -70.442122
LeftForeArm 8.047134 0.000000 119.811968
LeftHand 9.590197 0.000000 4.687279
LeftHandThumb1 -26.253704 0.000000 33.147579
RightShoulder -6.817803 -12.964595 -17.740223
RightArm 13.894073 -32.855997 76.252795
RightForeArm 1.526533 -0.000000 109.035117
RightHand 12.624019 -0.000000 -12.735989
RightHandThumb1 -24.326973 -0.000000 -32.862282
LeftUpLeg -17.434411 -4.675391 2.692899
LeftLeg 30.096679 -0.000000 -0.000000
LeftFoot -14.613142 9.775823 -21.352247
LeftToeBase -17.056561 -0.000000 0.000000
RightUpLeg -23.564109 0.574253 0.197989
RightLeg 15.646963 -0.000000 -0.000000
RightFoot -7.421167 -10.794305 12.415121
RightToeBase -3.766447 -0.000000 0.000000
434
root -1.266491 32.932544 -3.466236 14.993307 2.192054 -1.533650
Spine -10.285204 -6.873870 2.960548
Head 4.588183 -2.738883 2.094180
LeftShoulder -22.786185 48.843493 2.673653
LeftArm 52.421311 13.130003 -70.464762
LeftForeArm 8.161054 -0.000000 119.681062
LeftHand 9.462310 -0.000000 4.701919
LeftHandThumb1 -26.253704 0.000000 33.147579
RightShoulder -6.902102 -13.049577 -17.559031
RightArm 13.852689 -32.577545 76.172636
RightForeArm 1.292072 -0.000000 109.082251
RightHand 12.361559 -0.000000 -12.232053
RightHandThumb1 -24.326973 -0.000000 -32.862282
LeftUpLeg -16.868455 -5.058389 2.778921
LeftLeg 28.900599 -0.000000 -0.000000
LeftFoot -14.143979 9.936258 -20.711414
LeftToeBase -18.936288 -0.000000 0.000000
RightUpLeg -24.000867 0.652285 0.201263
RightLeg 15.672873 -0.000000 -0.000000
RightFoot -7.296410 -10.600976 12.543213
RightToeBase -3.618479 -0.000000 0.000000
